<svg width="732" height="626" viewBox="0 0 732 626" fill="none" xmlns="http://www.w3.org/2000/svg">
<g id="Frame" clip-path="url(#clip0_1_2)">
<g id="Woman with Camera">
<path id="uuid-439d0637-f8cd-4da9-8264-2bd9be0e325e-162-127-266-115" d="M376.76 311.691C379.38 322.191 375.87 332.041 368.93 333.701C361.99 335.351 354.24 328.181 351.62 317.681C350.51 313.501 350.46 309.111 351.48 304.901L340.96 260.271L362.82 255.811L370.87 300.281C373.76 303.571 375.78 307.491 376.76 311.701V311.691Z" fill="#FDADB0"/>
<path id="Vector" d="M285.09 566.891L286.44 596.141L285.09 604.231L289.81 613.681L326.91 617.721L328.94 600.191L309.38 590.071L308.81 573.541L285.09 566.891Z" fill="#FDADB0"/>
<path id="Vector_2" d="M324.22 610.981L322.2 613.681L283.35 602.481C283.35 602.481 285.1 619.751 285.1 623.121C285.1 626.491 349.18 626.491 358.82 625.141C368.46 623.791 365.37 615.021 365.37 615.021L325.38 596.091L324.22 610.971V610.981Z" fill="#B909FF"/>
<path id="Vector_3" d="M188.44 545.361L180.35 573.501L176.49 580.741L177.94 591.191L211.79 606.901L219.32 590.931L204.02 575.091L213.62 550.211L188.44 545.361Z" fill="#FDADB0"/>
<path id="Vector_4" d="M211.39 599.651L208.61 601.561L175.38 578.521C175.38 578.521 171.51 595.441 170.44 598.631C169.37 601.821 230.07 622.331 239.64 624.141C249.21 625.951 249.08 616.651 249.08 616.651L217.25 585.921L211.39 599.651Z" fill="#B909FF"/>
<path id="Vector_5" d="M287.71 83.9614L289.13 106.961L246.17 109.141L259.47 78.8314L287.71 83.9614Z" fill="#FDADB0"/>
<path id="Vector_6" d="M290.22 103.521C278.71 108.661 260.29 107.251 239.42 103.521L236.16 248.121C236.16 248.121 301.45 261.251 323.9 237.031L312.09 118.891L290.23 103.531V103.521L290.22 103.521Z" fill="#FF89E9"/>
<path id="Vector_7" d="M316.81 240.571L224.63 249.681L179.15 558.531H214L273.68 346.901L278.41 586.731H310.31L337.48 293.141L316.81 240.571Z" fill="#040404"/>
<path id="Vector_8" d="M252.52 94.6614L221.55 112.991C209.82 119.931 204.29 133.951 208.12 147.031L232.05 228.781C232.05 228.781 193.08 295.741 205.74 301.641C234.2 314.911 276.67 311.681 276.67 311.681L267.18 151.371L252.52 94.6614Z" fill="#B909FF"/>
<path id="Vector_9" d="M288.88 102.911L323.9 116.511L332.17 217.521L355.33 298.901C316.1 313.221 319.76 306.551 319.76 306.551L313.26 166.131L288.88 102.911Z" fill="#B909FF"/>
<path id="Vector_10" d="M340.03 297.191L339.91 296.641L304.12 131.091C303.12 126.461 304.4 121.831 307.63 118.371C310.86 114.911 315.4 113.321 320.08 114.001C325.86 114.841 330.48 119.051 331.86 124.721L371.18 286.331L340.03 297.201L340.03 297.191Z" fill="#B909FF"/>
<path id="uuid-f2df242a-48f3-480d-b6d2-ac40662a02c5-163-128-267-116" d="M287.34 211.891C298.1 210.761 307.37 215.601 308.04 222.711C308.71 229.821 300.53 236.491 289.76 237.621C285.46 238.131 281.12 237.571 277.08 235.981L231.42 240.181L230.05 217.911L275.21 216.131C278.87 213.731 283.03 212.271 287.34 211.881L287.34 211.891Z" fill="#FDADB0"/>
<path id="Vector_11" d="M231.71 114.041C220.66 112.481 210.29 119.751 207.99 130.671C199.98 168.781 185.59 249.951 208.18 251.311C237.72 253.081 266.07 245.991 266.07 245.991L258.98 205.231L235.94 202.871L249.49 139.481C252.06 127.441 243.89 115.751 231.7 114.041H231.71Z" fill="#B909FF"/>
</g>
<g id="Head">
<path id="Vector_12" d="M269.07 90.0714C288.317 90.0714 303.92 74.4685 303.92 55.2214C303.92 35.9742 288.317 20.3714 269.07 20.3714C249.823 20.3714 234.22 35.9742 234.22 55.2214C234.22 74.4685 249.823 90.0714 269.07 90.0714Z" fill="#FDADB0"/>
</g>
<g id="Hair">
<path id="Vector_13" d="M285.65 10.0614C293.33 12.7614 297.72 14.3014 301.74 18.1814C308.54 24.7314 309.66 33.4814 310.7 41.6114C311.52 47.9714 312.57 56.1914 308.84 65.5914C307.57 68.8014 301.4 83.0814 289.6 84.8914C287.28 85.2414 281.84 85.3414 283.41 84.1814C297.93 73.4614 304.12 66.9914 303.61 50.4814C303.29 40.2214 287.61 29.1414 278.3 27.1514C274.38 26.3114 269.16 27.0814 265.41 30.1514C257.58 36.5714 257.92 63.1414 249.67 68.6914C246.28 70.9714 248.54 54.9014 246.15 57.5014C241.43 62.6414 244.46 70.5214 245.31 73.5214C249.33 87.7514 256.91 89.1414 260.84 101.301C265.08 114.421 259.74 126.771 258.48 129.701C256.28 134.801 252.5 143.541 243.87 147.741C232.91 153.071 224.27 146.131 219.18 152.081C216.33 155.401 217.87 158.921 212.73 169.261C211.05 172.631 210.21 174.321 209.47 174.261C205.95 173.981 200.26 145.821 209.47 119.601C213.34 108.601 217.12 97.8213 227.27 89.3913C232.64 84.9313 237.14 83.3313 238.42 78.1213C240.25 70.6813 232.65 67.5113 231.13 55.7813C230.09 47.7613 229.36 36.2813 232.19 28.9313C234.87 21.9813 237.19 15.9513 243.27 10.4913C244.73 9.18133 256.51 0.25133 269.01 0.00133037C274.76 -0.11867 278.99 7.73133 285.66 10.0713H285.65V10.0614Z" fill="#632F02"/>
</g>
<g id="Camera">
<path id="Vector_14" d="M511.85 179.421C511.17 197.001 512.41 216.091 511.85 236.181C511.85 238.611 509.97 240.581 507.64 240.581H460.23C458.34 240.581 456.75 239.281 456.21 237.501L339.17 214.971C339.02 216.601 337.72 217.891 336.12 217.891H323.69V224.501C323.69 226.621 322.05 228.331 320.02 228.331H296.34C294.31 228.331 292.67 226.611 292.67 224.501V175.261C292.67 173.591 293.7 172.181 295.12 171.661C294.87 171.261 294.73 170.811 294.73 170.351C294.73 168.561 296.74 167.111 299.21 167.111C301.68 167.111 303.69 168.561 303.69 170.351C303.69 170.731 303.6 171.091 303.43 171.431H305.76V163.051C305.76 161.711 306.8 160.631 308.08 160.631H315.16C316.44 160.631 317.48 161.721 317.48 163.051V171.431H320.01C322.04 171.431 323.68 173.151 323.68 175.261V184.751H336.11C337.55 184.751 338.74 185.781 339.08 187.171L456 180.021V179.421C456 176.991 457.88 175.021 460.21 175.021H507.62C509.94 175.021 511.83 176.991 511.83 179.421L511.85 179.421Z" fill="#3F3D56"/>
</g>
</g>
<defs>
<clipPath id="clip0_1_2">
<rect width="731.67" height="625.985" fill="white"/>
</clipPath>
</defs>
</svg>
